<?xml version="1.0" standalone="no"?>
<!DOCTYPE svg PUBLIC "-//W3C//DTD SVG 20010904//EN"
 "http://www.w3.org/TR/2001/REC-SVG-20010904/DTD/svg10.dtd">
<svg version="1.0" xmlns="http://www.w3.org/2000/svg"
 width="1262.000000pt" height="1252.000000pt" viewBox="0 0 1262.000000 1252.000000"
 preserveAspectRatio="xMidYMid meet">

<g transform="translate(0.000000,1252.000000) scale(0.100000,-0.100000)"
fill="#000000" stroke="none">
<path d="M8290 9640 c-295 -45 -528 -147 -741 -323 -135 -112 -270 -319 -314
-482 -23 -83 -30 -274 -15 -376 12 -86 75 -299 88 -299 9 0 176 152 306 279
198 193 474 511 680 784 53 70 96 126 96 124 0 -11 -107 -199 -161 -284 -158
-247 -273 -389 -503 -618 -105 -105 -226 -217 -269 -250 -76 -58 -77 -60 -50
-66 53 -12 228 -9 326 6 273 41 491 164 669 378 133 160 233 383 274 612 19
108 26 400 11 488 l-8 47 -137 -1 c-76 0 -188 -9 -252 -19z"/>
<path d="M6121 9185 c-49 -330 53 -677 259 -885 133 -135 287 -200 472 -200
81 0 243 22 256 35 6 6 -166 231 -294 385 -71 85 -207 233 -302 329 -96 95
-168 170 -160 165 75 -44 264 -202 383 -320 136 -135 224 -240 328 -396 l72
-108 13 48 c7 26 12 105 13 177 0 111 -4 143 -26 220 -76 262 -286 466 -580
564 -107 36 -252 61 -351 61 l-72 0 -11 -75z"/>
<path d="M5705 8176 c-173 -25 -392 -95 -524 -167 -87 -48 -183 -110 -178
-116 6 -6 130 38 177 62 25 13 61 28 80 34 19 5 73 24 119 41 46 17 86 29 88
26 2 -2 -12 -13 -32 -25 -19 -11 -40 -32 -45 -46 -5 -14 -16 -25 -23 -25 -14
0 -47 -31 -47 -44 0 -5 16 -5 36 -2 33 7 35 6 32 -16 -3 -20 -9 -23 -53 -25
-59 -3 -264 -32 -315 -44 -49 -12 -125 -62 -146 -96 -9 -15 -40 -49 -68 -75
-35 -33 -45 -48 -33 -48 25 0 21 -12 -19 -51 -20 -18 -44 -50 -55 -70 -10 -20
-37 -53 -60 -73 -24 -20 -38 -36 -33 -36 14 0 155 85 184 111 30 26 138 79
162 79 23 0 38 -30 38 -79 0 -23 5 -41 10 -41 6 0 10 7 10 15 0 8 7 15 15 15
11 0 15 -11 15 -39 0 -22 5 -43 10 -46 16 -10 12 -57 -10 -121 -37 -106 -25
-205 35 -276 14 -16 28 -42 31 -56 4 -15 13 -36 20 -46 8 -11 11 -30 8 -42 -4
-16 0 -26 15 -34 12 -6 21 -17 21 -25 0 -8 13 -29 30 -47 27 -30 29 -31 30
-12 0 12 -6 27 -14 34 -8 6 -12 18 -9 26 3 8 -4 25 -15 37 -20 23 -56 87 -48
87 3 0 44 -47 91 -105 47 -57 98 -114 112 -125 24 -19 25 -21 9 -38 -26 -29
-19 -39 32 -49 30 -5 47 -13 47 -23 0 -24 60 -51 137 -62 49 -7 93 -21 133
-43 33 -18 74 -36 92 -40 43 -9 111 -60 118 -88 7 -25 80 -71 131 -81 24 -5
33 -3 37 8 18 47 66 -10 74 -87 5 -51 3 -54 -45 -110 -84 -99 -95 -184 -35
-282 20 -33 53 -98 73 -145 29 -66 44 -89 70 -105 19 -11 53 -39 77 -61 36
-35 43 -47 43 -80 0 -92 -47 -379 -91 -559 -22 -88 -20 -132 6 -163 23 -27 85
-52 129 -52 22 0 20 20 -6 47 l-22 23 27 28 c15 16 27 38 27 49 0 25 113 133
164 157 30 14 41 30 60 89 3 11 16 17 34 17 38 0 79 33 222 179 63 65 129 126
146 134 49 25 109 100 133 167 12 33 45 90 72 126 62 82 79 115 79 154 0 23
-4 30 -19 30 -11 0 -32 11 -48 24 -16 14 -43 28 -59 32 -16 4 -69 27 -118 51
-56 28 -98 43 -113 40 -26 -5 -28 0 -8 27 12 16 12 21 0 40 -8 11 -15 28 -15
37 0 26 -50 63 -118 87 -64 24 -162 105 -162 134 0 11 -13 17 -41 21 -23 3
-46 11 -50 19 -6 9 -9 6 -9 -11 0 -17 -4 -22 -16 -17 -9 3 -22 6 -29 6 -8 0
-20 7 -28 15 -22 22 -100 46 -111 35 -14 -14 -24 -12 -28 4 -5 22 -100 -13
-139 -50 -28 -27 -31 -27 -65 -15 -30 11 -44 11 -76 0 -35 -11 -41 -11 -59 8
-22 22 -38 78 -39 134 0 51 -18 61 -92 58 -52 -3 -62 -1 -59 11 2 8 5 25 6 37
2 13 11 43 21 68 21 55 13 67 -40 58 -30 -5 -40 -12 -48 -35 -20 -56 -116 -78
-156 -35 -48 51 -65 134 -38 186 31 60 136 129 176 116 13 -4 22 1 30 16 11
20 18 21 72 16 64 -6 90 -22 115 -72 18 -34 53 -75 65 -75 17 0 7 59 -17 94
-39 58 -29 100 39 164 42 39 43 45 16 95 l-20 38 25 -17 c22 -15 25 -15 25 0
0 8 14 37 30 63 17 26 30 55 30 64 0 23 16 28 73 21 36 -4 51 -1 60 11 7 8 21
17 32 19 11 2 26 16 33 31 14 29 57 38 80 15 9 -9 12 -9 12 3 1 10 5 9 15 -5
22 -29 19 2 -3 39 -11 18 -27 30 -40 30 -15 0 -35 17 -60 50 -20 28 -54 58
-75 69 -21 10 -65 43 -99 74 -52 49 -61 54 -69 39 -14 -24 -29 -21 -95 18 -37
23 -70 35 -93 35 -49 0 -91 51 -91 109 0 37 2 41 26 41 18 0 28 -6 31 -21 4
-16 11 -19 29 -15 32 8 32 -17 -1 -46 -27 -23 -25 -38 6 -38 10 0 50 -14 89
-31 88 -40 104 -35 94 28 -7 55 -65 141 -114 169 -34 21 -39 34 -12 35 11 0
13 2 4 6 -8 3 -25 0 -38 -7 -19 -11 -27 -10 -49 4 -14 10 -43 18 -63 20 -36 2
-37 3 -40 44 -4 47 2 51 33 22 14 -13 47 -25 85 -31 70 -11 104 -25 95 -40 -4
-5 1 -9 10 -9 21 0 92 -39 121 -67 13 -13 28 -23 34 -23 5 0 10 -11 10 -24 0
-13 7 -29 15 -36 8 -7 15 -19 15 -26 0 -8 4 -14 9 -14 5 0 42 -27 82 -61 71
-59 146 -105 156 -95 3 2 -2 29 -11 59 -24 83 -21 114 15 148 25 24 28 31 19
48 -6 11 -20 26 -32 32 -12 7 -54 35 -93 64 -86 64 -166 107 -214 114 -23 4
-36 12 -36 21 0 13 27 15 183 14 101 -1 180 2 175 7 -31 31 -589 50 -758 25z
m365 -32 c0 -2 -9 -4 -21 -4 -11 0 -18 4 -14 10 5 8 35 3 35 -6z m-502 -157
c2 -10 -3 -17 -12 -17 -18 0 -29 16 -21 31 9 14 29 6 33 -14z m62 8 c0 -8 -4
-15 -9 -15 -5 0 -11 7 -15 15 -3 9 0 15 9 15 8 0 15 -7 15 -15z m-160 -15 l35
-7 -27 -13 c-25 -12 -30 -11 -48 5 -22 20 -28 41 -8 29 7 -4 28 -11 48 -14z
m236 -12 c1 -13 5 -34 9 -48 l8 -25 -27 24 c-29 27 -32 41 -14 59 17 17 23 15
24 -10z m-115 -30 c22 -6 39 -14 39 -19 0 -10 -70 7 -83 20 -14 14 -4 14 44
-1z m183 -26 c2 -4 1 -14 -4 -21 -10 -17 -31 -5 -23 14 6 16 19 20 27 7z
m-189 -41 c-3 -6 -14 -11 -23 -11 -15 1 -15 2 2 15 21 16 32 13 21 -4z m-120
-11 c-3 -5 -12 -10 -20 -10 -8 0 -17 5 -20 10 -4 6 5 10 20 10 15 0 24 -4 20
-10z m-41 -78 c3 -5 -8 -22 -24 -37 -29 -28 -30 -28 -30 -7 0 26 -17 28 -50 5
l-25 -17 19 22 c26 30 99 52 110 34z m431 -36 c6 -7 18 -15 28 -19 9 -3 17
-14 17 -23 0 -9 11 -29 25 -46 14 -16 25 -38 25 -48 0 -31 11 -50 30 -50 11 0
22 -5 25 -10 7 -12 -42 -33 -56 -24 -5 3 -9 -2 -9 -10 0 -13 -13 -14 -82 -9
l-83 6 23 -25 c12 -13 22 -31 22 -39 -1 -10 -5 -9 -15 5 -8 11 -15 17 -15 13
0 -4 -9 -3 -21 3 -14 8 -24 8 -33 1 -21 -18 -48 10 -44 44 2 24 8 31 31 33 19
2 33 -3 43 -15 13 -17 13 -17 14 4 0 12 5 25 10 28 6 3 10 -1 10 -9 0 -18 25
-22 35 -5 11 17 -2 22 -54 23 -42 1 -55 7 -94 41 -51 45 -57 62 -24 74 12 5
38 25 57 45 32 34 37 36 80 30 25 -3 50 -12 55 -18z m-305 -4 c0 -13 -12 -22
-22 -16 -10 6 -1 24 13 24 5 0 9 -4 9 -8z m-80 -21 c0 -5 -6 -11 -12 -14 -7
-2 -9 -8 -5 -13 4 -4 17 -3 27 4 27 16 43 15 37 -3 -9 -23 11 -28 23 -5 20 37
45 24 41 -20 -1 -11 1 -11 9 3 6 9 16 17 22 17 12 0 -14 -44 -49 -81 -16 -17
-21 -29 -14 -33 21 -13 11 -26 -19 -26 -25 0 -29 4 -27 23 2 19 -2 22 -31 19
-29 -2 -92 21 -92 33 0 2 12 11 28 20 21 12 22 14 5 10 -27 -7 -50 26 -30 44
29 24 87 38 87 22z m180 -101 c8 -5 11 -12 8 -16 -10 -9 -38 3 -38 16 0 12 10
13 30 0z m453 -12 c-13 -12 -25 -19 -29 -15 -10 10 16 37 34 37 13 0 12 -4 -5
-22z m-98 -108 c3 -5 4 -14 0 -20 -8 -13 -35 -1 -35 16 0 16 26 19 35 4z m65
-16 c0 -16 -16 -19 -25 -4 -8 13 4 32 16 25 5 -4 9 -13 9 -21z m166 -19 c18
-13 16 -14 -23 -15 -40 0 -52 8 -36 23 11 12 38 8 59 -8z m64 -5 c0 -5 9 -10
20 -10 25 0 25 -15 0 -60 l-19 -35 -16 38 c-16 38 -13 77 6 77 5 0 9 -4 9 -10z
m-493 -31 c47 -29 30 -43 -41 -34 -61 8 -67 15 -33 38 29 21 34 21 74 -4z
m428 -59 c-3 -5 -10 -10 -16 -10 -5 0 -9 5 -9 10 0 6 7 10 16 10 8 0 12 -4 9
-10z"/>
<path d="M5719 7610 c24 -21 51 -26 51 -12 0 10 -45 32 -63 32 -7 -1 -1 -10
12 -20z"/>
<path d="M5925 7579 c-4 -6 -5 -12 -2 -15 2 -3 7 2 10 11 7 17 1 20 -8 4z"/>
<path d="M5490 7632 c0 -5 7 -13 16 -16 10 -4 14 -1 12 6 -5 15 -28 23 -28 10z"/>
<path d="M6600 7753 c1 -18 17 -31 50 -37 97 -20 146 -1 74 29 -37 15 -124 21
-124 8z"/>
<path d="M4561 7516 c-10 -11 -8 -16 8 -21 28 -8 61 3 61 21 0 19 -54 19 -69
0z"/>
<path d="M7501 7506 c-1 -13 -7 -17 -21 -13 -13 3 -20 0 -20 -9 0 -8 -7 -25
-16 -39 -12 -18 -13 -28 -4 -44 14 -26 25 -26 43 -1 13 19 15 18 20 -22 4 -27
14 -49 29 -61 l23 -19 -22 5 c-13 3 -23 4 -23 2 0 -1 16 -29 35 -61 52 -86 45
-114 -21 -79 -26 13 -30 13 -41 -2 -7 -9 -13 -33 -13 -52 0 -20 -3 -60 -6 -88
-7 -52 -6 -53 20 -53 16 0 26 -6 26 -14 0 -22 19 -30 35 -16 17 14 19 7 6 -18
-5 -9 -19 -39 -31 -65 -21 -46 -78 -97 -107 -97 -7 0 -13 -6 -13 -14 0 -7 -11
-39 -25 -71 -32 -72 -48 -157 -49 -267 -1 -80 1 -89 22 -103 12 -9 31 -33 42
-54 10 -21 33 -50 51 -65 30 -25 35 -26 108 -20 42 4 85 13 96 20 28 20 62 17
68 -5 2 -11 15 -21 28 -23 23 -3 24 -7 24 -83 0 -44 4 -112 9 -151 7 -56 5
-76 -7 -100 -9 -17 -21 -69 -27 -115 -28 -223 -39 -323 -35 -327 2 -2 18 21
35 52 18 31 47 69 66 84 44 37 62 83 74 194 5 51 19 139 30 196 28 142 43 329
35 437 -6 82 -49 376 -61 418 -3 9 -15 22 -26 28 -19 10 -20 9 -15 -10 8 -34
-17 -9 -48 46 -39 70 -30 83 25 37 17 -15 33 -24 36 -21 19 19 -141 381 -185
421 -12 11 -21 24 -21 31 0 15 -101 168 -107 161 -3 -2 7 -24 21 -49 27 -45
34 -91 16 -102 -5 -3 -10 0 -10 7 0 7 -12 40 -26 73 -15 33 -30 78 -34 100 -4
22 -8 32 -9 21z m195 -443 c27 -27 77 -141 68 -155 -6 -9 -10 -5 -14 12 -5 22
-13 26 -57 30 -63 7 -87 24 -78 59 7 26 42 71 56 71 4 0 15 -8 25 -17z m122
-169 c-10 -10 -28 6 -28 24 0 15 1 15 17 -1 9 -9 14 -19 11 -23z"/>
<path d="M4560 7349 c0 -5 5 -7 10 -4 6 3 10 8 10 11 0 2 -4 4 -10 4 -5 0 -10
-5 -10 -11z"/>
<path d="M4408 7284 c-5 -4 -8 -16 -8 -28 0 -14 3 -17 11 -9 6 6 9 19 7 28 -1
9 -6 13 -10 9z"/>
<path d="M4465 7260 c-3 -5 -2 -10 4 -10 5 0 13 5 16 10 3 6 2 10 -4 10 -5 0
-13 -4 -16 -10z"/>
<path d="M7540 7179 c0 -5 5 -7 10 -4 6 3 10 8 10 11 0 2 -4 4 -10 4 -5 0 -10
-5 -10 -11z"/>
<path d="M4310 7128 c-27 -44 -81 -184 -88 -228 -3 -19 -11 -44 -18 -55 -45
-71 -100 -517 -69 -565 14 -21 24 42 25 155 0 99 14 138 48 143 26 4 29 36 7
66 -17 22 -19 100 -6 160 13 55 26 64 44 30 l15 -28 21 41 c26 53 44 130 36
162 -5 20 -8 22 -16 10 -5 -7 -9 -25 -9 -37 0 -29 -29 -92 -41 -92 -14 0 -11
43 5 81 8 19 28 52 45 73 25 31 30 46 26 68 -4 17 -2 28 4 28 6 0 11 5 11 10
0 21 -21 9 -40 -22z"/>
<path d="M7505 6890 c-3 -5 -2 -10 4 -10 5 0 13 5 16 10 3 6 2 10 -4 10 -5 0
-13 -4 -16 -10z"/>
<path d="M5938 6719 c-10 -5 -18 -14 -18 -19 0 -16 47 -11 54 5 7 18 32 20 43
3 9 -14 90 -47 138 -55 50 -10 14 21 -61 51 -67 27 -126 33 -156 15z"/>
<path d="M6287 6606 c-3 -8 -16 -17 -29 -19 -13 -3 14 -5 59 -4 72 2 105 9 92
21 -2 2 -29 6 -60 10 -44 5 -58 3 -62 -8z"/>
<path d="M6140 6585 c-11 -13 -8 -15 15 -15 23 0 26 2 15 15 -7 8 -14 15 -15
15 -1 0 -8 -7 -15 -15z"/>
<path d="M6457 6594 c-13 -13 -7 -24 14 -24 11 0 19 5 17 12 -5 14 -22 21 -31
12z"/>
<path d="M4230 6441 c0 -35 6 -56 22 -77 13 -15 21 -38 20 -51 -4 -25 16 -31
36 -11 18 18 15 43 -9 64 -28 25 -49 67 -49 99 0 14 -4 25 -10 25 -5 0 -10
-22 -10 -49z"/>
<path d="M4229 6294 c-11 -30 -3 -46 11 -24 10 16 13 50 5 50 -3 0 -10 -12
-16 -26z"/>
<path d="M4320 6275 c0 -8 -7 -18 -15 -21 -13 -5 -13 -9 1 -35 8 -16 19 -29
24 -29 13 0 13 87 0 95 -5 3 -10 -1 -10 -10z"/>
<path d="M4120 6209 c0 -41 27 -209 34 -217 13 -13 13 9 -4 121 -18 120 -30
158 -30 96z"/>
<path d="M4204 6165 c-16 -42 -25 -157 -14 -168 3 -2 15 -8 28 -11 19 -6 23
-3 28 23 10 48 24 37 24 -18 0 -66 8 -85 27 -69 11 9 17 9 25 -3 8 -11 8 -9 3
6 -4 11 -9 35 -12 54 -5 30 -4 33 11 28 28 -11 7 13 -22 25 l-27 11 29 6 c44
9 45 31 2 31 -44 0 -66 29 -66 87 0 56 -14 55 -36 -2z"/>
<path d="M5035 6175 c17 -14 33 -25 38 -25 4 0 12 -11 17 -25 11 -29 30 -33
30 -7 0 20 -31 52 -67 71 -38 20 -49 11 -18 -14z"/>
<path d="M4374 6064 c-3 -19 -2 -45 4 -57 9 -18 11 -12 11 36 1 65 -5 74 -15
21z"/>
<path d="M4428 6035 c-3 -6 -8 -22 -12 -37 -4 -18 -15 -30 -31 -34 -32 -8 -22
-24 16 -24 22 0 29 5 29 20 0 13 7 20 20 20 15 0 20 -7 20 -25 0 -18 9 -29 33
-41 59 -30 112 -94 77 -94 -5 0 -10 -4 -10 -10 0 -5 8 -10 18 -10 11 0 29 -9
42 -20 28 -24 43 -25 60 -5 19 23 41 18 80 -19 33 -32 80 -56 80 -40 0 3 -16
24 -36 46 -40 45 -42 74 -4 71 45 -4 69 7 84 36 14 27 12 41 -5 41 -3 0 -9 -9
-12 -20 -6 -25 -52 -43 -87 -35 -15 3 -50 23 -78 45 -72 54 -135 77 -168 61
-20 -9 -30 -9 -40 0 -8 7 -12 14 -10 17 10 10 -15 42 -34 42 -10 0 -20 5 -22
12 -3 7 -7 8 -10 3z"/>
<path d="M5860 5965 c0 -8 7 -15 15 -15 8 0 15 7 15 15 0 8 -7 15 -15 15 -8 0
-15 -7 -15 -15z"/>
<path d="M4174 5946 c-8 -21 11 -51 48 -77 18 -12 45 -33 60 -47 26 -24 26
-24 37 -3 10 18 7 22 -19 36 -54 28 -113 83 -104 97 3 4 0 8 -6 8 -6 0 -13 -6
-16 -14z"/>
<path d="M4500 5865 c0 -8 5 -15 10 -15 6 0 10 7 10 15 0 8 -4 15 -10 15 -5 0
-10 -7 -10 -15z"/>
<path d="M4362 5834 c-27 -19 -28 -34 -3 -34 11 0 21 9 24 22 8 29 5 31 -21
12z"/>
<path d="M4455 5840 c-3 -5 -1 -10 4 -10 6 0 11 5 11 10 0 6 -2 10 -4 10 -3 0
-8 -4 -11 -10z"/>
<path d="M4952 5828 c9 -13 28 -24 44 -26 l29 -3 -37 25 c-45 32 -55 33 -36 4z"/>
<path d="M5030 5771 c-31 -6 -32 -8 -13 -14 25 -9 75 1 67 14 -3 5 -8 8 -12 8
-4 -1 -23 -5 -42 -8z"/>
<path d="M4451 5718 c-8 -22 -16 -28 -40 -28 -24 0 -31 -4 -31 -20 0 -11 -4
-20 -10 -20 -5 0 -10 -11 -10 -24 0 -14 -10 -30 -26 -41 -32 -21 -30 -33 35
-170 57 -121 86 -149 143 -140 52 9 63 1 229 -168 84 -86 139 -135 139 -125 0
10 -11 25 -25 34 -32 21 -31 27 5 41 16 6 33 20 36 30 3 10 15 40 26 68 36 88
4 192 -95 305 -22 25 -51 70 -64 100 -14 30 -31 62 -38 70 -7 8 -18 32 -25 53
-16 52 -30 46 -30 -13 0 -27 -3 -50 -7 -50 -15 0 -91 51 -96 64 -3 8 -28 25
-56 39 l-50 24 -10 -29z m459 -419 c0 -11 -4 -17 -10 -14 -5 3 -10 15 -10 26
0 11 5 17 10 14 6 -3 10 -15 10 -26z"/>
<path d="M5086 5724 c-9 -24 -8 -26 13 -19 13 4 23 0 30 -12 14 -24 14 2 1 28
-13 23 -36 25 -44 3z"/>
<path d="M5260 5548 c0 -19 18 -43 25 -36 9 9 -4 48 -16 48 -5 0 -9 -6 -9 -12z"/>
<path d="M5598 5488 c9 -9 15 -9 24 0 9 9 7 12 -12 12 -19 0 -21 -3 -12 -12z"/>
<path d="M5540 5465 c0 -10 7 -15 18 -13 21 4 19 22 -2 26 -10 2 -16 -3 -16
-13z"/>
<path d="M5190 5412 c0 -12 39 -46 45 -41 6 7 -24 49 -36 49 -5 0 -9 -4 -9 -8z"/>
<path d="M5215 5160 c6 -33 4 -41 -11 -47 -16 -6 -16 -7 1 -19 15 -11 13 -14
-21 -23 -48 -14 -116 -52 -122 -68 -8 -27 55 -13 104 22 27 19 53 35 59 35 5
0 23 11 40 24 l29 24 -32 36 c-18 20 -32 41 -32 46 0 6 -5 10 -11 10 -7 0 -8
-14 -4 -40z"/>
<path d="M6490 4700 c-12 -7 -12 -12 -2 -22 14 -14 42 -2 50 20 4 14 -27 16
-48 2z"/>
<path d="M6862 4580 c-24 -11 -66 -22 -95 -26 -29 -4 -84 -17 -122 -30 -92
-29 -221 -41 -280 -24 -24 7 -57 9 -72 5 l-28 -7 35 -29 35 -28 -50 -1 c-27 0
-60 -3 -72 -6 -16 -5 -23 -2 -23 8 0 12 -13 14 -74 10 -53 -3 -88 0 -125 13
-40 13 -55 14 -66 5 -10 -8 -46 -10 -128 -4 -81 5 -125 3 -152 -6 -27 -9 -34
-15 -24 -20 28 -16 186 -41 319 -51 217 -16 523 17 701 75 106 35 272 109 277
124 5 16 -5 15 -56 -8z"/>
<path d="M4090 3655 l0 -275 180 0 180 0 0 45 0 45 -130 0 -130 0 0 75 0 75
110 0 110 0 0 45 0 45 -110 0 -110 0 0 65 0 65 125 0 125 0 0 45 0 45 -175 0
-175 0 0 -275z"/>
<path d="M5647 3924 c-4 -4 -7 -128 -7 -276 l0 -268 55 0 55 0 0 110 0 110
105 0 105 0 0 45 0 45 -105 0 -105 0 0 75 0 75 121 0 120 0 -3 43 -3 42 -166
3 c-91 1 -168 -1 -172 -4z"/>
<path d="M6635 3883 c-11 -2 -30 -6 -42 -9 -19 -4 -23 -11 -23 -44 0 -39 -1
-40 -36 -40 -35 0 -35 -1 -32 -37 3 -35 6 -38 35 -41 l31 -3 4 -134 c3 -129 4
-136 29 -160 32 -32 84 -45 139 -35 57 10 63 19 45 63 -13 32 -18 36 -35 27
-26 -14 -46 -13 -64 6 -13 12 -16 39 -16 125 l0 109 55 0 55 0 0 40 0 40 -55
0 -55 0 0 50 c0 28 -3 49 -7 49 -5 -1 -17 -3 -28 -6z"/>
<path d="M4656 3788 c-60 -16 -112 -75 -126 -143 -28 -137 37 -247 158 -265
71 -11 126 5 167 51 20 22 34 46 32 52 -2 7 -19 21 -37 31 -27 16 -35 17 -38
6 -11 -32 -51 -60 -86 -60 -68 0 -111 69 -99 160 12 85 104 121 164 64 l28
-26 30 21 c38 27 39 40 4 73 -46 43 -118 56 -197 36z"/>
<path d="M5077 3787 c-46 -15 -93 -58 -112 -104 -21 -50 -19 -149 4 -198 35
-76 88 -107 184 -106 138 0 218 114 187 264 -15 74 -57 122 -122 142 -60 17
-89 18 -141 2z m132 -96 c48 -37 46 -166 -4 -208 -28 -24 -74 -30 -106 -13
-60 33 -67 159 -11 223 20 23 89 22 121 -2z"/>
<path d="M7778 3785 c-92 -30 -143 -136 -119 -252 21 -105 84 -154 196 -154
69 0 95 9 138 49 35 33 34 43 -4 65 -30 17 -31 17 -61 -8 -64 -54 -158 -21
-170 60 -3 19 3 20 136 23 l139 3 -6 59 c-6 70 -31 117 -74 143 -43 25 -118
30 -175 12z m131 -91 c12 -15 21 -35 21 -45 0 -17 -9 -19 -85 -19 -76 0 -85 2
-85 19 0 10 12 30 26 45 37 36 94 36 123 0z"/>
<path d="M6072 3615 c3 -173 3 -175 29 -200 51 -52 146 -51 200 1 l29 28 0
-32 c0 -32 0 -32 50 -32 l50 0 0 205 0 205 -49 0 -49 0 -4 -141 c-3 -140 -3
-141 -31 -165 -34 -29 -87 -32 -110 -6 -14 16 -17 43 -17 165 l0 147 -51 0
-50 0 3 -175z"/>
<path d="M6870 3624 c0 -138 3 -171 17 -195 36 -61 152 -72 205 -19 16 17 31
30 34 30 2 0 4 -13 4 -30 0 -29 1 -30 50 -30 l50 0 0 205 0 205 -50 0 -50 0 0
-112 c0 -128 -11 -181 -43 -203 -23 -16 -74 -20 -95 -7 -22 15 -32 74 -32 199
l0 123 -45 0 -45 0 0 -166z"/>
<path d="M7350 3585 l0 -205 49 0 49 0 4 134 c3 126 4 136 27 160 19 20 34 26
67 26 44 0 54 12 54 68 0 20 -5 22 -46 22 -39 0 -51 -5 -75 -31 l-29 -31 0 31
c0 31 -1 31 -50 31 l-50 0 0 -205z"/>
<path d="M6810 2920 c-18 -11 -4 -42 17 -38 10 2 19 10 21 19 4 19 -19 31 -38
19z"/>
<path d="M7183 2923 c-21 -8 -15 -43 6 -43 11 0 23 5 27 11 8 14 -17 38 -33
32z"/>
<path d="M5110 2807 c0 -120 6 -137 47 -137 26 0 30 12 8 30 -12 10 -15 36
-15 116 0 97 -1 104 -20 104 -19 0 -20 -7 -20 -113z"/>
<path d="M5210 2814 c0 -117 9 -144 45 -144 28 0 33 21 10 40 -11 10 -15 36
-15 111 0 92 -1 99 -20 99 -19 0 -20 -7 -20 -106z"/>
<path d="M6580 2795 l0 -125 25 0 c14 0 25 5 25 12 0 9 3 9 12 0 19 -19 66
-14 88 8 27 27 28 119 2 143 -22 20 -73 22 -90 5 -9 -9 -12 -2 -12 35 0 43 -2
47 -25 47 l-25 0 0 -125z m118 13 c17 -17 15 -74 -4 -92 -18 -19 -20 -19 -45
-6 -14 8 -19 21 -19 48 0 40 14 62 40 62 9 0 21 -5 28 -12z"/>
<path d="M5570 2870 c0 -11 -4 -20 -10 -20 -5 0 -10 -7 -10 -15 0 -8 5 -15 10
-15 6 0 10 -24 10 -53 0 -69 20 -99 63 -95 37 4 44 31 10 36 -25 4 -37 32 -31
78 2 23 9 30 31 32 35 4 37 32 1 32 -17 0 -28 6 -31 20 -3 11 -14 20 -24 20
-12 0 -19 -7 -19 -20z"/>
<path d="M8190 2870 c0 -11 -4 -20 -10 -20 -5 0 -10 -7 -10 -15 0 -8 5 -15 10
-15 6 0 10 -24 10 -53 0 -69 20 -99 63 -95 37 4 44 31 10 36 -25 4 -37 32 -31
78 2 23 9 30 31 32 35 4 37 32 1 32 -17 0 -28 6 -31 20 -3 11 -14 20 -24 20
-12 0 -19 -7 -19 -20z"/>
<path d="M7010 2860 c0 -5 -17 -10 -38 -10 -61 0 -96 -58 -56 -91 14 -12 14
-14 -1 -26 -12 -8 -16 -20 -12 -34 4 -14 0 -27 -10 -34 -20 -15 -9 -52 19 -60
55 -18 125 -4 137 28 17 46 4 59 -71 72 -48 8 -49 22 -2 31 45 8 70 43 54 74
-9 16 -8 24 5 36 20 20 19 24 -5 24 -11 0 -20 -4 -20 -10z m-17 -54 c8 -21
-16 -48 -36 -40 -17 6 -23 35 -10 47 11 12 41 7 46 -7z m14 -151 c7 -19 5 -22
-27 -30 -29 -7 -67 16 -56 33 11 18 76 15 83 -3z"/>
<path d="M4437 2832 c-10 -10 -17 -25 -17 -34 0 -18 31 -48 51 -48 9 0 23 -6
33 -13 16 -12 16 -14 2 -26 -13 -11 -22 -12 -43 -2 -35 16 -58 -3 -29 -25 29
-21 82 -18 106 6 36 36 19 70 -43 90 -46 14 -43 35 4 36 50 1 53 3 39 19 -18
21 -83 19 -103 -3z"/>
<path d="M4600 2760 c0 -83 1 -90 20 -90 18 0 20 7 20 64 0 71 17 99 48 79 13
-7 18 -28 20 -77 3 -58 5 -66 22 -66 18 0 20 7 20 58 0 69 19 103 47 86 14 -9
19 -26 21 -78 3 -58 5 -66 22 -66 18 0 20 7 20 71 0 39 -5 79 -10 90 -13 24
-72 26 -91 3 -11 -14 -13 -14 -21 0 -11 19 -69 21 -86 4 -9 -9 -12 -9 -12 0 0
7 -9 12 -20 12 -19 0 -20 -7 -20 -90z"/>
<path d="M4924 2836 c-15 -12 -16 -17 -7 -27 10 -10 15 -10 27 0 19 16 61 10
61 -8 0 -8 -17 -19 -39 -25 -50 -14 -70 -42 -53 -76 14 -28 59 -39 83 -19 11
9 18 9 26 1 17 -17 48 -15 48 2 0 8 -4 18 -10 21 -5 3 -10 30 -10 60 0 35 -5
59 -16 69 -19 20 -84 21 -110 2z m86 -95 c0 -24 -25 -45 -45 -37 -22 8 -18 35
8 46 33 13 37 12 37 -9z"/>
<path d="M5408 2839 c-22 -12 -23 -52 -3 -72 8 -9 28 -18 45 -22 31 -7 41 -32
16 -41 -8 -3 -24 0 -36 6 -12 6 -29 9 -38 5 -15 -6 -14 -9 7 -26 27 -22 78
-24 104 -5 9 7 17 26 17 43 0 31 -6 35 -72 57 -10 3 -18 13 -18 22 0 14 7 15
38 10 43 -6 57 1 41 21 -13 15 -76 17 -101 2z"/>
<path d="M5721 2824 c-48 -61 -11 -154 61 -154 44 0 83 26 68 46 -10 11 -16
11 -36 -3 -22 -14 -26 -14 -49 1 -39 26 -30 36 35 36 59 0 60 0 60 28 0 48
-25 72 -75 72 -35 0 -48 -5 -64 -26z m97 -26 c3 -15 -4 -18 -38 -18 -38 0 -40
1 -30 21 14 25 63 23 68 -3z"/>
<path d="M5910 2725 c0 -118 1 -125 20 -125 17 0 20 7 20 47 0 37 3 44 12 35
18 -18 63 -14 89 7 31 25 34 108 5 140 -21 23 -75 28 -94 9 -9 -9 -12 -9 -12
0 0 7 -9 12 -20 12 -19 0 -20 -7 -20 -125z m108 83 c20 -20 15 -86 -7 -98 -25
-13 -27 -13 -45 6 -19 18 -21 75 -4 92 7 7 19 12 28 12 9 0 21 -5 28 -12z"/>
<path d="M6131 2836 c-7 -8 -11 -27 -9 -43 2 -23 11 -31 46 -43 41 -14 53 -32
31 -45 -5 -4 -24 -1 -40 5 -24 10 -33 10 -42 1 -18 -18 18 -41 63 -41 41 0 70
24 70 57 0 25 -19 42 -57 52 -15 4 -30 15 -31 25 -3 15 2 17 35 14 29 -2 38 1
38 12 0 21 -87 27 -104 6z"/>
<path d="M6800 2760 c0 -89 0 -90 25 -90 25 0 25 1 25 90 0 89 0 90 -25 90
-25 0 -25 -1 -25 -90z"/>
<path d="M7170 2760 c0 -83 1 -90 20 -90 19 0 20 7 20 90 0 83 -1 90 -20 90
-19 0 -20 -7 -20 -90z"/>
<path d="M7270 2760 c0 -83 1 -90 20 -90 18 0 20 7 20 64 0 71 17 99 48 79 13
-7 18 -28 20 -77 3 -58 5 -66 22 -66 18 0 20 7 20 58 0 69 19 103 47 86 14 -9
19 -26 21 -78 3 -58 5 -66 22 -66 18 0 20 7 20 71 0 39 -5 79 -10 90 -13 24
-72 26 -91 3 -11 -14 -13 -14 -21 0 -11 19 -69 21 -86 4 -9 -9 -12 -9 -12 0 0
7 -9 12 -20 12 -19 0 -20 -7 -20 -90z"/>
<path d="M7590 2725 c0 -118 1 -125 20 -125 17 0 20 7 20 47 0 37 3 44 12 35
18 -18 63 -14 89 7 31 25 34 108 5 140 -21 23 -75 28 -94 9 -9 -9 -12 -9 -12
0 0 7 -9 12 -20 12 -19 0 -20 -7 -20 -125z m108 83 c20 -20 15 -86 -7 -98 -25
-13 -27 -13 -45 6 -19 18 -21 75 -4 92 7 7 19 12 28 12 9 0 21 -5 28 -12z"/>
<path d="M7814 2836 c-15 -12 -16 -17 -7 -27 10 -10 15 -10 27 0 19 16 61 10
61 -8 0 -8 -15 -19 -35 -24 -65 -16 -89 -57 -52 -90 23 -21 56 -22 72 -2 12
14 15 14 30 0 9 -8 24 -15 33 -15 18 0 23 25 7 35 -5 3 -10 27 -10 53 0 65
-21 92 -69 92 -20 0 -46 -6 -57 -14z m86 -94 c0 -23 -19 -42 -41 -42 -32 0
-32 40 1 53 28 10 40 7 40 -11z"/>
<path d="M8012 2827 c-32 -34 -30 -100 3 -132 31 -32 86 -34 116 -4 30 30 9
49 -29 27 -26 -16 -31 -16 -50 -2 -26 18 -29 65 -6 88 19 20 33 20 54 1 15
-14 18 -14 30 0 36 44 -77 65 -118 22z"/>
<path d="M6360 2790 c0 -17 7 -20 50 -20 43 0 50 3 50 20 0 17 -7 20 -50 20
-43 0 -50 -3 -50 -20z"/>
</g>
</svg>
